<svg t="1569296660582" class="icon" viewBox="0 0 1024 1024" version="1.1" 
  xmlns="http://www.w3.org/2000/svg" p-id="1299" width="1000" height="1000">
  <path d="M396.8 800c-108.8 0-192-89.6-192-192 0-51.2 19.2-102.4 57.6-134.4 6.4-6.4 6.4-6.4 12.8 0s6.4 6.4 0 12.8c-32 32-51.2 76.8-51.2 121.6 0 96 76.8 179.2 179.2 179.2 57.6 0 108.8-25.6 140.8-70.4 0-6.4 6.4-6.4 12.8 0 6.4 0 6.4 6.4 0 12.8-38.4 44.8-96 70.4-160 70.4z" fill="#FDD000" p-id="1300"></path>
  <path d="M396.8 614.4m-121.6 0a121.6 121.6 0 1 0 243.2 0 121.6 121.6 0 1 0-243.2 0Z" fill="#FDD000" p-id="1301"></path>
  <path d="M300.8 460.8h-6.4V448l172.8-153.6h12.8v12.8L300.8 460.8c6.4 0 0 0 0 0zM582.4 691.2c-6.4-6.4-6.4-12.8-6.4-12.8l140.8-128c6.4-6.4 6.4 0 12.8 0 6.4 6.4 0 6.4 0 12.8l-147.2 128c6.4 0 6.4 0 0 0zM473.6 428.8h-6.4v-12.8l204.8-179.2h12.8v12.8L473.6 428.8c6.4 0 6.4 0 0 0zM582.4 576H576v-12.8l198.4-172.8h12.8v12.8L582.4 576zM544 473.6h-6.4v-12.8l262.4-230.4h12.8v12.8L544 473.6c6.4 0 6.4 0 0 0z" fill="#FDD000" p-id="1302"></path>
</svg>